<svg xmlns="http://www.w3.org/2000/svg" xmlns:xlink="http://www.w3.org/1999/xlink" xml:space="preserve" version="1.1" style="shape-rendering:geometricPrecision;text-rendering:geometricPrecision;image-rendering:optimizeQuality;" viewBox="0 0 846.66 1058.325" x="0px" y="0px" fill-rule="evenodd" clip-rule="evenodd"><defs><style type="text/css">
   
    .fil0 {fill:black;fill-rule:nonzero}
   
  </style></defs><g><path class="fil0" d="M113.86 622.69l233.32 0c-4.47,-7.07 -5.36,-16.31 0.63,-25.64 12.55,-19.44 68.29,-98.18 65.55,-114.84 -4.05,-24.55 -39.35,-49.55 -58.43,-63.64 -18.1,17.6 -38.24,40.41 -56.13,58.12 -16.25,16.09 -27.19,22.79 -53.01,13.77 -27.87,-9.71 -70.71,-44.35 -97.04,-63.13 -26.53,-18.89 2.18,-59.2 28.7,-40.34 21.34,15.23 64.16,49.6 84.63,56.72 6.41,1.84 48.78,-49.13 49.5,-49.85 -7.37,-13.57 5.36,-38.02 53.44,-121.49l-31.96 1.89c-34.05,2.01 -35.05,4.29 -56.64,53.56 -3.52,7.99 -7.44,16.93 -12.86,29.01 -13.27,29.71 -58.44,9.54 -45.18,-20.17 4.25,-9.49 8.74,-19.71 12.65,-28.62 33.28,-75.94 34.84,-79.44 99.14,-83.23 28.53,-1.68 52.15,-2.45 79.94,-6.93 31.29,-5.11 47.34,5.34 61.71,18.86 22.16,20.94 42.11,38.39 63.55,61.31 6.77,7.24 8.96,9.58 9.6,9.71 5.47,0.19 51.15,-48.38 51.27,-48.51 22.33,-23.71 58.39,10.22 36.07,33.94 -0.14,0.15 -46,49.16 -77.67,61.24 -23.75,9.09 -39.4,-5.61 -55.33,-22.64 -7.13,-7.62 -17.47,-18.67 -35.51,-35.39 -16.34,31.89 -40.55,70.27 -58.34,100.78 35.49,31.83 52.8,52.98 56.78,77.09 6.85,41.57 -47.58,110.91 -72,148.42l296.59 0 0 -277.8 49.66 -49.65 0 327.66c80.59,6.49 75.88,127.31 -5.1,127.31l-617.53 0c-84.17,0 -84.17,-127.52 0,-127.52zm374.35 -526.24c31.18,0 56.48,25.3 56.48,56.48 0,31.2 -25.3,56.49 -56.48,56.49 -31.2,0 -56.49,-25.29 -56.49,-56.49 0,-31.18 25.29,-56.48 56.49,-56.48zm130.36 299.62c-23.09,23.08 -58.22,-12.04 -35.11,-35.11l169.8 -169.8c23.07,-23.11 58.19,12.02 35.11,35.11l-169.8 169.8zm-504.71 258.23l617.53 0c42.53,0 42.53,64.3 0,64.3l-617.53 0c-42.54,0 -42.54,-64.3 0,-64.3zm617.53 -11.76l-617.53 0c-57.95,0 -57.95,87.81 0,87.81l617.53 0c57.94,0 57.94,-87.81 0,-87.81z"/></g><text x="0" y="861.66" fill="#000000" font-size="5px" font-weight="bold" font-family="'Helvetica Neue', Helvetica, Arial-Unicode, Arial, Sans-serif">Created by Eko Sofiantono</text><text x="0" y="866.66" fill="#000000" font-size="5px" font-weight="bold" font-family="'Helvetica Neue', Helvetica, Arial-Unicode, Arial, Sans-serif">from the Noun Project</text></svg>