<svg xmlns="http://www.w3.org/2000/svg" version="1.1" viewBox="-5.0 -10.0 110.0 135.0">
 <path d="m85.227 43.184h-4.1523c-1.1953-5.457-3.793-10.395-7.3984-14.41-0.003906-0.027344 0-0.050782-0.003906-0.078126l-4.6055-16.578c-0.67969-2.4492-2.9336-4.1602-5.4766-4.1602h-1.0898v-6.8203c0-0.62891-0.50781-1.1367-1.1367-1.1367h-22.727c-0.62891 0-1.1367 0.50781-1.1367 1.1367v6.8164h-1.0898c-2.543 0-4.793 1.7109-5.4766 4.1602l-4.5898 16.52c-0.011719 0.039063-0.003906 0.078126-0.007812 0.12109-0.035157 0.039063-0.066407 0.078125-0.10156 0.11719l-3.6367-2.0391c-0.52734-0.29688-1.1445-0.37109-1.7266-0.20312-0.58203 0.16406-1.0703 0.54688-1.3672 1.0781l-4.4414 7.9297c-0.29688 0.53125-0.37109 1.1445-0.20312 1.7266 0.16406 0.58203 0.54688 1.0703 1.0781 1.3672l3.6211 2.0273c-0.24219 0.79297-0.44922 1.6016-0.62891 2.418h-4.1523c-1.2539 0-2.2734 1.0195-2.2734 2.2734v9.0898c0 1.2539 1.0195 2.2734 2.2734 2.2734h4.1523c0.17969 0.82031 0.38672 1.625 0.62891 2.418l-3.6211 2.0273c-1.0938 0.61328-1.4844 2-0.87109 3.0938l4.4414 7.9297c0.29688 0.53125 0.78125 0.91406 1.3672 1.0781 0.20703 0.058594 0.41406 0.085937 0.62109 0.085937 0.38281 0 0.76172-0.097656 1.1094-0.28906l3.6367-2.0391c0.023437 0.023437 0.042968 0.050781 0.066406 0.078124l4.6328 16.684c0.67969 2.4492 2.9336 4.1602 5.4766 4.1602h1.0898v6.8164c0 0.62891 0.50781 1.1367 1.1367 1.1367h22.727c0.62891 0 1.1367-0.50781 1.1367-1.1367v-6.8164h1.0898c2.543 0 4.793-1.7109 5.4766-4.1602l4.6055-16.578c0.007812-0.027343 0-0.050781 0.003906-0.078125 3.6055-4.0156 6.2031-8.9531 7.3984-14.41h4.1523c1.2539 0 2.2734-1.0195 2.2734-2.2734v-9.0898c0-1.2539-1.0195-2.2734-2.2734-2.2734zm-35.227 36.363c-16.293 0-29.547-13.254-29.547-29.547s13.254-29.547 29.547-29.547 29.547 13.254 29.547 29.547-13.254 29.547-29.547 29.547zm13.59-69.32c1.5273 0 2.8789 1.0273 3.2852 2.4961l3.5938 12.945c-2.3867-2.0078-5.0664-3.6797-7.9727-4.9219v-10.516h1.0898zm-23.816-7.9531h20.453v17.605c-3.2109-1.0938-6.6484-1.6953-10.227-1.6953s-7.0156 0.60156-10.227 1.6953zm-6.6484 10.449c0.41016-1.4688 1.7578-2.4961 3.2852-2.4961h1.0898v10.516c-2.9062 1.2461-5.5859 2.9141-7.9727 4.9219l3.5938-12.945zm-16.082 24.027 4.4414-7.9297 3.2773 1.8359c-1.8398 2.3984-3.3477 5.0625-4.4531 7.9258l-3.2656-1.8281zm-2.2695 17.797v-9.0898h3.7383c-0.21484 1.4844-0.32812 3-0.32812 4.5469 0 1.543 0.11719 3.0586 0.32812 4.5469h-3.7383zm6.7148 16.633-4.4414-7.9297 3.2656-1.8281c1.1055 2.8633 2.6133 5.5273 4.4531 7.9258l-3.2773 1.8359zm14.922 18.594c-1.5273 0-2.8789-1.0273-3.2852-2.4961l-3.5938-12.945c2.3867 2.0078 5.0664 3.6758 7.9727 4.9219v10.516h-1.0898zm23.816 7.9531h-20.453v-17.605c3.2109 1.0938 6.6484 1.6953 10.227 1.6953s7.0156-0.60156 10.227-1.6953zm6.6484-10.449c-0.41016 1.4688-1.7578 2.4961-3.2852 2.4961h-1.0898v-10.516c2.9062-1.2461 5.5859-2.9141 7.9727-4.9219l-3.5938 12.945zm18.352-32.73h-3.7383c0.21484-1.4844 0.32812-3 0.32812-4.5469 0-1.543-0.11719-3.0586-0.32812-4.5469h3.7383zm-34.09 38.637c0 0.62891-0.50781 1.1367-1.1367 1.1367s-1.1367-0.50781-1.1367-1.1367 0.50781-1.1367 1.1367-1.1367 1.1367 0.50781 1.1367 1.1367zm0-5.6836c0 0.62891-0.50781 1.1367-1.1367 1.1367s-1.1367-0.50781-1.1367-1.1367 0.50781-1.1367 1.1367-1.1367 1.1367 0.50781 1.1367 1.1367zm-1.1367-63.637c-14.41 0-26.137 11.727-26.137 26.137s11.727 26.137 26.137 26.137 26.137-11.727 26.137-26.137-11.727-26.137-26.137-26.137zm0 50c-13.16 0-23.863-10.703-23.863-23.863s10.703-23.863 23.863-23.863 23.863 10.703 23.863 23.863-10.703 23.863-23.863 23.863zm5.8906-21.574-0.94531-0.47266-0.76953-0.77344-0.40234-4.8281c-0.070313-0.78906-0.62891-1.4414-1.4688-1.6484-0.57031-0.13672-1.1836 0.007813-1.6445 0.39453-0.14453 0.12109-0.47656 0.33984-1.1211 0.44531-0.082031 0.015625-0.11328 0-0.15234-0.027344-0.082031-0.054687-0.125-0.11719-0.12891-0.19141-0.011718-0.097656 0.039063-0.21094 0.13281-0.30469 0.48828-0.48828 0.56641-1.2617 0.17969-1.832l-0.33594-0.5c-0.23438-0.35547-0.64844-0.55078-1.0703-0.5-2.8008 0.3125-4.2461 1.4727-4.9609 2.3828-0.35938 0.45312-0.5625 0.87891-0.67969 1.1875l-0.20703 0.16797c-0.87891 0.69922-1.0508 1.957-0.39062 2.8633l3.9258 5.418c0.46094 0.63672 1.0352 1.1719 1.7109 1.582l2.3438 1.4336c0.93359 0.56641 2 0.86719 3.0859 0.86719h2.7188c1.1523 0 2.0938-0.9375 2.0938-2.0938v-0.47656c0-1.3203-0.73438-2.5039-1.9102-3.0938zm-0.35938 3.3945h-2.5391c-0.66797 0-1.3281-0.18359-1.9023-0.53516l-2.3398-1.4297c-0.41406-0.25391-0.76953-0.58203-1.0508-0.97266l-3.8242-5.2812 0.35156-0.28125c0.19922-0.15625 0.34375-0.41016 0.40234-0.65625 0.003906-0.011719 0.074219-0.30469 0.37109-0.67969 0.33203-0.42578 0.94531-0.9375 2.0625-1.2656-0.0625 0.27344-0.085938 0.55469-0.054688 0.83594 0.074219 0.75 0.48438 1.4297 1.1289 1.8594 0.53125 0.35547 1.1445 0.48438 1.7891 0.37891 0.70703-0.11719 1.25-0.33594 1.6523-0.5625l0.37891 4.5625c0.023438 0.26953 0.14062 0.51953 0.32812 0.71094l1.1953 1.1953c0.085937 0.085938 0.18359 0.15625 0.29297 0.21094l1.1094 0.55469h0.003907c0.40625 0.20312 0.65625 0.60938 0.65625 1.0586v0.30078zm13.926 0.61328c0.64844-2.0078 1-4.125 1-6.2969 0-2.1914-0.35547-4.3008-0.99609-6.2812-0.003907-0.011719 0-0.027344-0.003907-0.039062-0.007812-0.019532-0.023437-0.03125-0.027343-0.050782-1.3359-4.0664-3.9219-7.5625-7.293-10.059-0.039063-0.039062-0.0625-0.085937-0.10938-0.11719-0.039063-0.027344-0.085938-0.035156-0.125-0.058594-3.3555-2.4102-7.457-3.8477-11.898-3.8477s-8.5391 1.4375-11.898 3.8477c-0.039063 0.023438-0.085938 0.027344-0.125 0.058594-0.042969 0.03125-0.070313 0.078125-0.10938 0.11719-3.3711 2.4961-5.957 5.9922-7.293 10.059-0.007813 0.019532-0.023437 0.03125-0.027344 0.050782-0.003906 0.011718 0 0.027343-0.003906 0.039062-0.64062 1.9805-0.99609 4.0898-0.99609 6.2812 0 2.1719 0.35156 4.2891 1 6.2969 0.003907 0.007813 0 0.015625 0.003907 0.023437 0.003906 0.015626 0.015624 0.023438 0.019531 0.039063 0.98438 3.0195 2.6602 5.793 4.9727 8.1055 0.44531 0.44531 1.1641 0.44531 1.6055 0l4.0117-4.0117c0.44531-0.44531 0.44531-1.1641 0-1.6055-1.418-1.418-2.4453-3.1211-3.043-4.9805-0.39844-1.2305-0.61328-2.5273-0.61328-3.8633 0-6.8906 5.6094-12.5 12.5-12.5 6.8906 0 12.5 5.6094 12.5 12.5 0 1.332-0.21484 2.6289-0.61328 3.8633-0.59766 1.8594-1.625 3.5625-3.043 4.9805-0.44531 0.44531-0.44531 1.1641 0 1.6055l4.0117 4.0117c0.22266 0.22266 0.51172 0.33203 0.80469 0.33203 0.28906 0 0.58203-0.10938 0.80469-0.33203 2.3125-2.3125 3.9883-5.082 4.9727-8.1055 0.003907-0.015625 0.015626-0.023437 0.019532-0.039063 0.003906-0.007812 0-0.015624 0.003906-0.023437zm-5.1133-9.7617 3.2461-1.0547c0.37109 1.4492 0.59375 2.957 0.59375 4.5195 0 1.5469-0.20312 3.0625-0.57812 4.5234l-3.25-1.0547c0.26953-1.125 0.41797-2.2852 0.41797-3.4688 0-1.1953-0.16016-2.3516-0.42578-3.4648zm-13.207-11.25v-3.4102c3.1484 0.19531 6.082 1.1914 8.5977 2.793l-2.0078 2.7617c-1.9453-1.1992-4.1836-1.9648-6.5898-2.1484zm-8.8633 2.1484-2.0078-2.7617c2.5156-1.6016 5.4492-2.5977 8.5977-2.793v3.4102c-2.4023 0.18359-4.6445 0.94531-6.5898 2.1484zm-6.6289 16.035-3.25 1.0547c-0.375-1.4609-0.57812-2.9766-0.57812-4.5234 0-1.5625 0.21875-3.0703 0.59375-4.5195l3.2461 1.0547c-0.26953 1.1133-0.42578 2.2695-0.42578 3.4648 0 1.1836 0.15234 2.3438 0.41797 3.4688zm0.72266 8.5586c-1.4102-1.5938-2.5039-3.4023-3.2734-5.3398l3.25-1.0547c0.58984 1.4375 1.3984 2.7852 2.4297 3.9844l-2.4102 2.4102zm-0.019532-17.656-3.2422-1.0547c1.1367-2.8672 2.9727-5.3828 5.3125-7.3203l2.0117 2.7695c-1.7695 1.5078-3.1836 3.4258-4.0859 5.6055zm23.219-5.6055 2.0117-2.7695c2.3398 1.9375 4.1758 4.4531 5.3125 7.3203l-3.2422 1.0547c-0.90234-2.1797-2.3164-4.0938-4.0859-5.6055zm4.0664 23.262-2.4102-2.4102c1.0312-1.1992 1.8398-2.5469 2.4297-3.9844l3.25 1.0547c-0.76562 1.9375-1.8594 3.7461-3.2734 5.3398zm-14.77-55.211c0-0.62891 0.50781-1.1367 1.1367-1.1367s1.1367 0.50781 1.1367 1.1367-0.50781 1.1367-1.1367 1.1367-1.1367-0.50781-1.1367-1.1367zm0 5.6836c0-0.62891 0.50781-1.1367 1.1367-1.1367s1.1367 0.50781 1.1367 1.1367-0.50781 1.1367-1.1367 1.1367-1.1367-0.50781-1.1367-1.1367zm0 53.41c0 0.62891-0.50781 1.1367-1.1367 1.1367-0.62891 0-1.1367-0.50781-1.1367-1.1367s0.50781-1.1367 1.1367-1.1367c0.62891 0 1.1367 0.50781 1.1367 1.1367zm4.5469 0c0 0.62891-0.50781 1.1367-1.1367 1.1367-0.62891 0-1.1367-0.50781-1.1367-1.1367s0.50781-1.1367 1.1367-1.1367c0.62891 0 1.1367 0.50781 1.1367 1.1367z"/>
<text x="0.0" y="117.5" font-size="5.0" font-weight="bold" font-family="Arbeit Regular, Helvetica, Arial-Unicode, Arial, Sans-serif" fill="#000000">Created by Kmg Design</text><text x="0.0" y="122.5" font-size="5.0" font-weight="bold" font-family="Arbeit Regular, Helvetica, Arial-Unicode, Arial, Sans-serif" fill="#000000">from Noun Project</text></svg>