<svg xmlns="http://www.w3.org/2000/svg" xmlns:xlink="http://www.w3.org/1999/xlink" xml:space="preserve" version="1.1" style="shape-rendering:geometricPrecision;text-rendering:geometricPrecision;image-rendering:optimizeQuality;" viewBox="0 0 603 955" x="0px" y="0px" fill-rule="evenodd" clip-rule="evenodd"><defs><style type="text/css">
   
    .fil0 {fill:black}
   
  </style></defs><g><path class="fil0" d="M102 177c-77,159 -19,297 -102,422 16,-8 31,-16 47,-25 7,-40 14,-80 21,-120 102,-32 163,-21 195,8 -43,16 -98,9 -174,42 -13,88 -37,175 -86,260 212,-26 104,-130 336,-105 -42,-78 17,-195 49,-212 -22,33 -34,65 -25,96 43,2 62,6 74,25 23,51 106,124 166,134 -81,-274 15,-316 -10,-420 -12,8 -24,14 -38,19 56,-73 -19,-210 -74,-253 15,57 -8,111 -20,128 5,-51 -28,-93 -49,-112 -94,-90 -309,-63 -403,-50l220 215c100,-24 156,16 201,86 33,52 41,115 31,176 1,-19 -4,-36 -4,-36 -15,16 -31,24 -47,22 20,-8 39,-22 45,-39 0,0 1,-103 -79,-162 -80,-58 -204,-2 -204,-2 46,74 112,123 194,153 0,0 -186,-20 -264,-250z"/></g><text x="0" y="779" fill="#000000" font-size="5px" font-weight="bold" font-family="'Helvetica Neue', Helvetica, Arial-Unicode, Arial, Sans-serif">Created by kareemov1000</text><text x="0" y="784" fill="#000000" font-size="5px" font-weight="bold" font-family="'Helvetica Neue', Helvetica, Arial-Unicode, Arial, Sans-serif">from the Noun Project</text></svg>