<svg xmlns="http://www.w3.org/2000/svg" version="1.1" viewBox="-5.0 -10.0 110.0 135.0">
 <path d="m64.406 10c-3.8672 0-7 3.1328-7 7s3.1328 7 7 7 7-3.1328 7-7-3.1328-7-7-7zm-23.156 2.1875c-0.14453 0.011719-0.26562 0.042969-0.40625 0.0625-3.9414 0.57812-19.773 3.3281-20 3.375-1.6719 0.35938-2.9062 1.8281-2.9062 3.5938 0 2.0312 1.6406 3.6875 3.6875 3.6875 1.0781 0 18.113-2.4297 18.5-2.2812 0.41797 0.15625 4.2305 5.4492 5.7812 7.5938 0 0-17.539 21.133-18.062 22.812-0.16797 0.53906-7.0117 16.246-7.375 16.75-0.48047 0.66797-13.922 15.371-14.594 16.156-0.54688 0.64062-0.875 1.4688-0.875 2.375 0 2.0312 1.6719 3.6875 3.7188 3.6875 1.0664 0 2.0117-0.44141 2.6875-1.1562 0.62109-0.65625 13.859-14.906 14.406-15.375 0.70703-0.60547 8.2969-9.25 11.812-13.219l16.188 0.40625 3.3438 24.219c0.28125 2.0117 1.6719 3.6562 3.7188 3.6562s3.7188-1.625 3.7188-3.6562c0-1.4141-1.8125-26.48-1.8125-27.969 0-2.1289-1.5352-3.9102-3.5625-4.3125-0.28125-0.054688-13.031-2.3125-13.031-2.3125l9.9688-11.125 10.281 5.9688c0.73828 0.42578 1.5508 0.75 2.4688 0.75 0.99609 0 1.918-0.32422 2.6562-0.875 0.80078-0.59766 14.242-10.48 14.781-10.781 1.1328-0.62891 1.9062-1.8438 1.9062-3.2188 0-2.0312-1.7031-3.6562-3.75-3.6562-1.0117 0-1.9297 0.41406-2.5938 1.0625-0.50781 0.49609-11.488 7.5-12 7.5-0.089844 0-24.703-22.266-25.5-22.875-0.98047-0.66797-2.1406-0.89844-3.1562-0.84375zm51.938 25.875c-0.58203 0-1.1133 0.26172-1.4375 0.6875-0.22656 0.29688-21.086 17.387-21.344 17.531-0.53906 0.30469-0.90625 0.89844-0.90625 1.5625 0 0.63672 0.3125 1.1797 0.8125 1.5 0.27344 0.17578 10.062 8.25 10.062 8.25s-9.0195 13.652-9.3438 14c-0.29688 0.31641-0.5 0.75-0.5 1.2188 0 0.98438 0.78906 1.75 1.7812 1.75 0.42578 0 0.82031-0.13281 1.125-0.375 0.40625-0.32422 19.109-16.434 19.406-16.656 0.44141-0.33203 0.71875-0.84766 0.71875-1.4375 0-0.67578-0.38281-1.2617-0.9375-1.5625-0.25391-0.13672-10.469-7.4062-10.469-7.4062s11.898-15.672 12.219-15.938c0.39062-0.32422 0.625-0.83203 0.625-1.375 0-0.98438-0.82031-1.75-1.8125-1.75z"/>
<text x="0.0" y="117.5" font-size="5.0" font-weight="bold" font-family="Arbeit Regular, Helvetica, Arial-Unicode, Arial, Sans-serif" fill="#000000">Created by cathy moser</text><text x="0.0" y="122.5" font-size="5.0" font-weight="bold" font-family="Arbeit Regular, Helvetica, Arial-Unicode, Arial, Sans-serif" fill="#000000">from Noun Project</text></svg>